<svg id="SvgjsSvg1001" width="288" height="288" xmlns="http://www.w3.org/2000/svg" version="1.1" xmlns:xlink="http://www.w3.org/1999/xlink" xmlns:svgjs="http://svgjs.com/svgjs"><defs id="SvgjsDefs1002"></defs><g id="SvgjsG1008"><svg xmlns="http://www.w3.org/2000/svg" width="288" height="288" version="1" viewBox="0 0 32 32"><path fill="#364f6b" d="M 32,16 C 32,24.835821 24.835821,32 16,32 7.1641789,32 -1.5e-7,24.835821 -1.5e-7,16 -1.5e-7,7.1641791 7.1641789,5.0000001e-8 16,5.0000001e-8 24.835821,5.0000001e-8 32,7.1641791 32,16 l 0,0 z" class="color5dc560 svgShape"></path><path fill="#f0f0f0" d="m 11.008313,9.0208174 c -0.242052,0 -0.322737,0.1613683 -0.322737,0.4034198 0,0.1613695 0.242052,0.3227375 0.403422,0.2420535 0.242052,0 0.484104,0.242052 0.484104,0.4841053 0,0.242053 -0.242052,0.484105 -0.484104,0.484105 l -0.08069,0 c -0.645475,0 -1.1295801,0.56479 -1.1295801,1.129578 0,0.645474 0.4841051,1.129577 1.1295801,1.129577 l 0,0 0,0 0,0 0,0 c 0.242052,0 0.403419,0.242054 0.403419,0.484106 0,0.242052 -0.242052,0.484106 -0.484105,0.484106 -0.161368,0 -0.322736,0.161367 -0.322736,0.322735 0,0.161368 0.161368,0.322737 0.322736,0.322737 0.645474,0 1.12958,-0.484105 1.12958,-1.129578 0,-0.645473 -0.484106,-1.129577 -1.12958,-1.129577 l 0,0 -0.08069,0 0,0 c -0.242052,0 -0.484105,-0.242054 -0.484105,-0.484106 0,-0.242053 0.242053,-0.484104 0.484105,-0.484104 l 0.08069,0 c 0.645474,0 1.12958,-0.484106 1.12958,-1.129579 0,-0.6454733 -0.484106,-1.1295786 -1.12958,-1.1295786 l 0.08069,0 0,0 0,0 z m 3.065997,0 c -0.161367,0 -0.322735,0.2420525 -0.242052,0.4034198 0,0.1613695 0.161368,0.3227375 0.403421,0.3227375 0.242053,0 0.484106,0.242052 0.484106,0.4841043 0,0.242054 -0.161369,0.484106 -0.403422,0.484106 l 0,0 -0.08069,0 -0.08069,0 c -0.564789,0 -1.129578,0.56479 -1.129578,1.129579 0,0.645473 0.484104,1.129578 1.129578,1.129578 l 0,0 0,0 0,0 0,0 c 0.242051,0 0.484105,0.242051 0.484105,0.484104 0,0.242052 -0.242054,0.484106 -0.484105,0.484106 -0.16137,0 -0.322737,0.161368 -0.322737,0.322735 0,0.161369 0.161367,0.322736 0.322737,0.322736 0.645473,0 1.129577,-0.484103 1.129577,-1.129577 0,-0.645473 -0.484104,-1.129577 -1.129577,-1.129577 l 0,0 0,0 -0.08069,0 c -0.242053,0 -0.484106,-0.242052 -0.484106,-0.484105 0,-0.242052 0.242053,-0.484105 0.484106,-0.484105 l 0.08069,0 0.08069,0 c 0.645474,0 1.129578,-0.484105 1.129578,-1.12958 0,-0.6454723 -0.484104,-1.1295774 -1.129578,-1.1295774 -0.08069,-0.080684 -0.161368,-0.080684 -0.161368,-0.080684 l 0,0 0,0 z m 3.227368,0 c -0.161369,0 -0.322737,0.2420525 -0.242054,0.4034198 0,0.1613695 0.161369,0.3227375 0.403422,0.3227375 0.242051,0 0.484104,0.242052 0.484104,0.4841043 0,0.242054 -0.242053,0.484106 -0.484104,0.484106 l -0.08069,0 c -0.564789,0 -1.129579,0.56479 -1.129579,1.129579 0,0.645473 0.484106,1.129578 1.129579,1.129578 l 0,0 0,0 0,0 0,0 c 0.242051,0 0.484103,0.242051 0.484103,0.484104 0,0.242052 -0.242052,0.484106 -0.484103,0.484106 -0.161368,0 -0.322738,0.161368 -0.322738,0.322735 0,0.161369 0.16137,0.322736 0.322738,0.322736 0.645472,0 1.129577,-0.484103 1.129577,-1.129577 0,-0.645473 -0.484105,-1.129577 -1.129577,-1.129577 l 0,0 0,0 -0.08069,0 c -0.242054,0 -0.484105,-0.242052 -0.484105,-0.484105 0,-0.242052 0.242051,-0.484105 0.484105,-0.484105 l 0.08069,0 0.08069,0 c 0.645472,0 1.129576,-0.484105 1.129576,-1.12958 0,-0.6454723 -0.484104,-1.1295774 -1.129576,-1.1295774 -0.08069,-0.080684 -0.161368,-0.080684 -0.161368,-0.080684 l 0,0 0,0 z m 6.454731,0.5647893 c -0.564789,0 -0.96821,0.40342 -1.210262,0.8875263 -0.242052,0.484104 -0.40342,1.048893 -0.40342,1.532998 0,0.887525 0.564789,1.613683 1.290946,1.77505 -0.645474,2.017106 -0.484106,4.356945 -0.645474,6.454734 l 0,0.08069 c 0,0.645472 0.484106,1.048892 0.96821,1.048892 0.484105,0 0.96821,-0.40342 0.96821,-1.048892 l 0,-0.08069 c -0.161368,-2.097789 0.08069,-4.195575 -0.645474,-6.454734 0.726158,-0.161367 1.290948,-0.887525 1.290948,-1.77505 0,-0.484105 -0.161369,-1.048894 -0.403421,-1.532998 C 24.724619,9.9890267 24.321198,9.5856067 23.756409,9.5856067 l 0,0 0,0 z M 6.8934205,15.314181 c -0.1613683,0 -0.3227366,0.242052 -0.2420524,0.403422 0.6454731,2.33984 2.2591563,4.27626 4.5183129,5.24447 l 0,0.08069 0,1.613684 c 0,0.161368 0.161369,0.322736 0.322736,0.322736 l 5.809261,0 c 0.161368,0 0.322734,-0.161368 0.322734,-0.322736 l 0,-1.694368 c 2.09779,-0.968209 3.792156,-2.823945 4.43763,-5.244469 0.08069,-0.161369 -0.08069,-0.403422 -0.322736,-0.403422 l -14.8458855,0 0,0 0,0 0,0 z" class="colorfff svgShape"></path></svg></g></svg>