<svg xmlns="http://www.w3.org/2000/svg" viewBox="0 0 128 128"><path fill="#999" d="M64 128l64-32-64-32L0 96z"/><path fill="#999" d="M64 128l64-32-64-32L0 96z"/><path fill="#F8EBCB" d="M125 93.5L64 124V61l61-30.5z"/><path fill="#39C" d="M124 94l-59 29.5v-18L124 76z"/><path d="M87 112.5L66 123v-4l21-10.5zM122 95l-20 10v-4l20-10z" opacity=".15"/><path fill="#F8EBCB" d="M125 94.5l-2 1v-21l2-1zM122 95.1l1 .4v-30l-1 .5z"/><path d="M122 95.1l1 .4v-21l-1 .5z" opacity=".1"/><path fill="#F8EBCB" d="M66 124l-2 1v-21l2-1z"/><path d="M125 73.5L64 104v-1l61-30.5z" opacity=".15"/><path fill="#FFF" d="M125 72.5L64 103v-1l61-30.5z" opacity=".5"/><path d="M125 32.5L64 63v-1l61-30.5z" opacity=".15"/><path fill="#FFF" d="M125 31.5L64 62v-1l61-30.5zM87 96.5v16l1-.5V97l6-3v15l1-.5v-15l6-3v15l1-.5V89z" opacity=".5"/><path d="M66 103l1-.5v20l-1 .5zM66 62l1-.5v39l-1 .5zM122 34l1-.5v39l-1 .5zM121 81.5l1-.5v14l-1 .5zM116 94V84l-1 .5v10l-6 3v-10l-1 .5v10l-5 2.5v1l18-9v-1z" opacity=".15"/><path d="M80 112v-10l-1 .5v10l-6 3v-10l-1 .5v10l-5.2 2.6.2.9 19-9.5v-1zM102 91l1-.5v14l-1 .5zM86 99l1-.5v14l-1 .5z" opacity=".15"/><path fill="#FFF" d="M88 106v6l6-3z" opacity=".2"/><path d="M95 97.5l6-3v11l-6-6zM116 87l6-3v5h-6zM109 90.5l7-3.5v5l-7 .5zM80 105l7-3.5v5l-7 .5z" opacity=".15"/><path fill="#FFF" d="M73 107.5l-3 1.5v1c0 .8.7 1.2 1.5.7s1.5-1.4 1.5-2.3v-.9z"/><path fill="#CC291F" d="M76 105.5l-3 1.5v1.5c0 .8.7 1.2 1.5.7.8-.4 1.5-1.4 1.5-2.3v-1.4z"/><path fill="#FFF" d="M79 104.5l-3 1.5v1c0 .8.7 1.2 1.5.7s1.5-1.4 1.5-2.3v-.9z"/><path fill="#CC291F" d="M82 102.5l-3 1.5v1.5c0 .8.7 1.2 1.5.7.8-.4 1.5-1.4 1.5-2.3v-1.4z"/><path fill="#FFF" d="M85 101.5l-3 1.5v1c0 .8.7 1.2 1.5.7s1.5-1.4 1.5-2.3v-.9z"/><path fill="#CC291F" d="M88 99.5l-3 1.5v1.5c0 .8.7 1.2 1.5.7.8-.4 1.5-1.4 1.5-2.3v-1.4z"/><path fill="#FFF" d="M91 98.5l-3 1.5v1c0 .8.7 1.2 1.5.7.8-.4 1.5-1.4 1.5-2.3v-.9z"/><path fill="#CC291F" d="M94 96.5L91 98v1.5c0 .8.7 1.2 1.5.7S94 98.8 94 98v-1.5z"/><path fill="#FFF" d="M97 95.5L94 97v1c0 .8.7 1.2 1.5.7.8-.4 1.5-1.4 1.5-2.3v-.9z"/><path fill="#CC291F" d="M100 93.5L97 95v1.5c0 .8.7 1.2 1.5.7s1.5-1.4 1.5-2.3v-1.4z"/><path fill="#FFF" d="M103 92.5l-3 1.5v1c0 .8.7 1.2 1.5.7.8-.4 1.5-1.4 1.5-2.3v-.9z"/><path fill="#CC291F" d="M106 90.5l-3 1.5v1.5c0 .8.7 1.2 1.5.7s1.5-1.4 1.5-2.3v-1.4z"/><path fill="#FFF" d="M109 89.5l-3 1.5v1c0 .8.7 1.2 1.5.7.8-.4 1.5-1.4 1.5-2.3v-.9z"/><path fill="#CC291F" d="M112 87.5l-3 1.5v1.5c0 .8.7 1.2 1.5.7s1.5-1.4 1.5-2.3v-1.4z"/><path fill="#FFF" d="M115 86.5l-3 1.5v1c0 .8.7 1.2 1.5.7.8-.4 1.5-1.4 1.5-2.3v-.9z"/><path fill="#CC291F" d="M118 84.5l-3 1.5v1.5c0 .8.7 1.2 1.5.7s1.5-1.4 1.5-2.3v-1.4z"/><path fill="#FFF" d="M121 83.5l-3 1.5v1c0 .8.7 1.2 1.5.7.8-.4 1.5-1.4 1.5-2.3v-.9z"/><path fill="#CC291F" d="M124 81.5l-3 1.5v1.5c0 .8.7 1.2 1.5.7.8-.4 1.5-1.4 1.5-2.3v-1.4z"/><path fill="#FFF" d="M127 80.5l-3 1.5v1c0 .8.7 1.2 1.5.7s1.5-1.4 1.5-2.3v-.9z"/><path d="M70 109v1c0 .8.7 1.2 1.5.7s1.5-1.4 1.5-2.3c0 .8.7 1.2 1.5.7s1.5-1.4 1.5-2.3c0 .8.7 1.2 1.5.7s1.5-1.4 1.5-2.3c0 .8.7 1.2 1.5.7s1.5-1.4 1.5-2.3c0 .8.7 1.2 1.5.7s1.5-1.4 1.5-2.3c0 .8.7 1.2 1.5.7s1.5-1.4 1.5-2.3c0 .8.7 1.2 1.5.7s1.5-1.4 1.5-2.3c0 .8.7 1.2 1.5.7S94 98.8 94 98c0 .8.7 1.2 1.5.7s1.5-1.4 1.5-2.3c0 .8.7 1.2 1.5.7s1.5-1.4 1.5-2.3c0 .8.7 1.2 1.5.7s1.5-1.4 1.5-2.3c0 .8.7 1.2 1.5.7s1.5-1.4 1.5-2.3c0 .8.7 1.2 1.5.7s1.5-1.4 1.5-2.3c0 .8.7 1.2 1.5.7s1.5-1.4 1.5-2.3c0 .8.7 1.2 1.5.7s1.5-1.4 1.5-2.3c0 .8.7 1.2 1.5.7s1.5-1.4 1.5-2.3c0 .8.7 1.2 1.5.7s1.5-1.4 1.5-2.3c0 .8.7 1.2 1.5.7s1.5-1.4 1.5-2.3c0 .8.7 1.2 1.5.7s1.5-1.4 1.5-2.3v-1L70 109z" opacity=".39"/><path fill="#FFF" d="M73 107.5l-3 1.5-4-4.3 3-1.5z"/><path fill="#CC291F" d="M70 109l-4-4.2v4.8c0 .8.9 1.7 2 2 1.1.3 2-.2 2-1V109zM76 106l-3 1.5-4-4.3 3-1.5z"/><path fill="#FFF" d="M79 104.5l-3 1.5-4-4.3 3-1.5z"/><path fill="#CC291F" d="M82 103l-3 1.5-4-4.3 3-1.5z"/><path fill="#FFF" d="M85 101.5l-3 1.5-4-4.3 3-1.5z"/><path fill="#CC291F" d="M88 100l-3 1.5-4-4.3 3-1.5z"/><path fill="#FFF" d="M91 98.5l-3 1.5-4-4.3 3-1.5z"/><path fill="#CC291F" d="M94 97l-3 1.5-4-4.3 3-1.5z"/><path fill="#FFF" d="M97 95.5L94 97l-4-4.3 3-1.5z"/><path fill="#CC291F" d="M100 94l-3 1.5-4-4.3 3-1.5z"/><path fill="#FFF" d="M103 92.5l-3 1.5-4-4.3 3-1.5z"/><path fill="#CC291F" d="M106 91l-3 1.5-4-4.3 3-1.5z"/><path fill="#FFF" d="M109 89.5l-3 1.5-4-4.3 3-1.5z"/><path fill="#CC291F" d="M112 88l-3 1.5-4-4.3 3-1.5z"/><path fill="#FFF" d="M115 86.5l-3 1.5-4-4.3 3-1.5z"/><path fill="#CC291F" d="M118 85l-3 1.5-4-4.3 3-1.5z"/><path fill="#FFF" d="M121 83.5l-3 1.5-4-4.3 3-1.5zM127 80.5l-3 1.5-4-4.3 3-1.5z"/><path fill="#CC291F" d="M124 82l-3 1.5-4-4.3 3-1.5z"/><path fill="#7FADB9" d="M120 72l-5 2.5V66c0-1.4 1.1-3.1 2.5-3.8 1.4-.7 2.5-.1 2.5 1.2V72z"/><path fill="#39C" d="M117.5 62.2c-1.4.7-2.5 2.4-2.5 3.8v8.5l2-1 1-.5 2-1v-8.5c0-1.4-1.1-1.9-2.5-1.3zm-1.5 3.3c0-.7.4-1.4 1-1.9v2.9l-1 .5v-1.5zm0 2.5l1-.5v2l-1 .5v-2zm0 5v-2l1-.5v2l-1 .5zm3-1.5l-1 .5v-2l1-.5v2zm0-3l-1 .5v-2l1-.5v2zm0-3l-1 .5v-2.9c.6-.1 1 .3 1 .9v1.5z"/><path d="M117.5 62.2c-.2.1-.4.3-.6.4 1.2-.5 2.1 0 2.1 1.2v7.7l-4 2v1l5-2.5v-8.5c0-1.4-1.1-1.9-2.5-1.3z" opacity=".4"/><path fill="#FFF" d="M121 72.5l-7 3.5v-1l7-3.5z" opacity=".5"/><path fill="#7FADB9" d="M112 76l-5 2.5V70c0-1.4 1.1-3.1 2.5-3.8 1.4-.7 2.5-.1 2.5 1.2V76z"/><path fill="#39C" d="M109.5 66.2c-1.4.7-2.5 2.4-2.5 3.8v8.5l2-1 1-.5 2-1v-8.5c0-1.4-1.1-1.9-2.5-1.3zm-1.5 3.3c0-.7.4-1.4 1-1.9v2.9l-1 .5v-1.5zm0 2.5l1-.5v2l-1 .5v-2zm0 5v-2l1-.5v2l-1 .5zm3-1.5l-1 .5v-2l1-.5v2zm0-3l-1 .5v-2l1-.5v2zm0-3l-1 .5v-2.9c.6-.1 1 .3 1 .9v1.5z"/><path d="M109.5 66.2c-.2.1-.4.3-.6.4 1.2-.5 2.1 0 2.1 1.2v7.7l-4 2v1l5-2.5v-8.5c0-1.4-1.1-1.9-2.5-1.3z" opacity=".4"/><path fill="#FFF" d="M113 76.5l-7 3.5v-1l7-3.5z" opacity=".5"/><path fill="#7FADB9" d="M101 81.5L96 84v-8.5c0-1.4 1.1-3.1 2.5-3.8 1.4-.7 2.5-.1 2.5 1.2v8.6z"/><path fill="#39C" d="M98.5 71.7c-1.4.7-2.5 2.4-2.5 3.8V84l2-1 1-.5 2-1V73c0-1.4-1.1-1.9-2.5-1.3zM97 75c0-.7.4-1.4 1-1.9V76l-1 .5V75zm0 2.5l1-.5v2l-1 .5v-2zm0 5v-2l1-.5v2l-1 .5zm3-1.5l-1 .5v-2l1-.5v2zm0-3l-1 .5v-2l1-.5v2zm0-3l-1 .5v-2.9c.6-.1 1 .3 1 .9V75z"/><path d="M98.5 71.7c-.2.1-.4.3-.6.4 1.2-.5 2.1 0 2.1 1.2V81l-4 2v1l5-2.5V73c0-1.4-1.1-1.9-2.5-1.3z" opacity=".4"/><path fill="#FFF" d="M102 82l-7 3.5v-1l7-3.5z" opacity=".5"/><path fill="#7FADB9" d="M93 85.5L88 88v-8.5c0-1.4 1.1-3.1 2.5-3.8 1.4-.7 2.5-.1 2.5 1.2v8.6z"/><path fill="#39C" d="M90.5 75.7c-1.4.7-2.5 2.4-2.5 3.8V88l2-1 1-.5 2-1V77c0-1.4-1.1-1.9-2.5-1.3zM89 79c0-.7.4-1.4 1-1.9V80l-1 .5V79zm0 2.5l1-.5v2l-1 .5v-2zm0 5v-2l1-.5v2l-1 .5zm3-1.5l-1 .5v-2l1-.5v2zm0-3l-1 .5v-2l1-.5v2zm0-3l-1 .5v-2.9c.6-.1 1 .3 1 .9V79z"/><path d="M90.5 75.7c-.2.1-.4.3-.6.4 1.2-.5 2.1 0 2.1 1.2V85l-4 2v1l5-2.5V77c0-1.4-1.1-1.9-2.5-1.3z" opacity=".4"/><path fill="#FFF" d="M94 86l-7 3.5v-1l7-3.5z" opacity=".5"/><path fill="#7FADB9" d="M82 91l-5 2.5V85c0-1.4 1.1-3.1 2.5-3.8 1.4-.7 2.5-.1 2.5 1.2V91z"/><path fill="#39C" d="M79.5 81.2c-1.4.7-2.5 2.4-2.5 3.8v8.5l2-1 1-.5 2-1v-8.5c0-1.4-1.1-1.9-2.5-1.3zM78 84.5c0-.7.4-1.4 1-1.9v2.9l-1 .5v-1.5zm0 2.5l1-.5v2l-1 .5v-2zm0 5v-2l1-.5v2l-1 .5zm3-1.5l-1 .5v-2l1-.5v2zm0-3l-1 .5v-2l1-.5v2zm0-3l-1 .5v-2.9c.6-.1 1 .3 1 .9v1.5z"/><path d="M79.5 81.2c-.2.1-.4.3-.6.4 1.2-.5 2.1 0 2.1 1.2v7.7l-4 2v1l5-2.5v-8.5c0-1.4-1.1-1.9-2.5-1.3z" opacity=".4"/><path fill="#FFF" d="M83 91.5L76 95v-1l7-3.5z" opacity=".5"/><path fill="#7FADB9" d="M74 95l-5 2.5V89c0-1.4 1.1-3.1 2.5-3.8 1.4-.7 2.5-.1 2.5 1.2V95z"/><path fill="#39C" d="M71.5 85.2c-1.4.7-2.5 2.4-2.5 3.8v8.5l2-1 1-.5 2-1v-8.5c0-1.4-1.1-1.9-2.5-1.3zM70 88.5c0-.7.4-1.4 1-1.9v2.9l-1 .5v-1.5zm0 2.5l1-.5v2l-1 .5v-2zm0 5v-2l1-.5v2l-1 .5zm3-1.5l-1 .5v-2l1-.5v2zm0-3l-1 .5v-2l1-.5v2zm0-3l-1 .5v-2.9c.6-.1 1 .3 1 .9v1.5z"/><path d="M71.5 85.2c-.2.1-.4.3-.6.4 1.2-.5 2.1 0 2.1 1.2v7.7l-4 2v1l5-2.5v-8.5c0-1.4-1.1-1.9-2.5-1.3z" opacity=".4"/><path fill="#FFF" d="M75 95.5L68 99v-1l7-3.5z" opacity=".5"/><path fill="#7FADB9" d="M120 58l-5 2.5V52c0-1.4 1.1-3.1 2.5-3.8 1.4-.7 2.5-.1 2.5 1.2V58z"/><path fill="#39C" d="M117.5 48.2c-1.4.7-2.5 2.4-2.5 3.8v8.5l2-1 1-.5 2-1v-8.5c0-1.4-1.1-1.9-2.5-1.3zm-1.5 3.3c0-.7.4-1.4 1-1.9v2.9l-1 .5v-1.5zm0 2.5l1-.5v2l-1 .5v-2zm0 5v-2l1-.5v2l-1 .5zm3-1.5l-1 .5v-2l1-.5v2zm0-3l-1 .5v-2l1-.5v2zm0-3l-1 .5v-2.9c.6-.1 1 .3 1 .9v1.5z"/><path d="M117.5 48.2c-.2.1-.4.3-.6.4 1.2-.5 2.1 0 2.1 1.2v7.7l-4 2v1l5-2.5v-8.5c0-1.4-1.1-1.9-2.5-1.3z" opacity=".4"/><path fill="#FFF" d="M121 58.5l-7 3.5v-1l7-3.5z" opacity=".5"/><g><path fill="#7FADB9" d="M112 62l-5 2.5V56c0-1.4 1.1-3.1 2.5-3.8 1.4-.7 2.5-.1 2.5 1.2V62z"/><path fill="#39C" d="M109.5 52.2c-1.4.7-2.5 2.4-2.5 3.8v8.5l2-1 1-.5 2-1v-8.5c0-1.4-1.1-1.9-2.5-1.3zm-1.5 3.3c0-.7.4-1.4 1-1.9v2.9l-1 .5v-1.5zm0 2.5l1-.5v2l-1 .5v-2zm0 5v-2l1-.5v2l-1 .5zm3-1.5l-1 .5v-2l1-.5v2zm0-3l-1 .5v-2l1-.5v2zm0-3l-1 .5v-2.9c.6-.1 1 .3 1 .9v1.5z"/><path d="M109.5 52.2c-.2.1-.4.3-.6.4 1.2-.5 2.1 0 2.1 1.2v7.7l-4 2v1l5-2.5v-8.5c0-1.4-1.1-1.9-2.5-1.3z" opacity=".4"/><path fill="#FFF" d="M113 62.5l-7 3.5v-1l7-3.5z" opacity=".5"/></g><g><path fill="#7FADB9" d="M101 67.5L96 70v-8.5c0-1.4 1.1-3.1 2.5-3.8 1.4-.7 2.5-.1 2.5 1.2v8.6z"/><path fill="#39C" d="M98.5 57.7c-1.4.7-2.5 2.4-2.5 3.8V70l2-1 1-.5 2-1V59c0-1.4-1.1-1.9-2.5-1.3zM97 61c0-.7.4-1.4 1-1.9V62l-1 .5V61zm0 2.5l1-.5v2l-1 .5v-2zm0 5v-2l1-.5v2l-1 .5zm3-1.5l-1 .5v-2l1-.5v2zm0-3l-1 .5v-2l1-.5v2zm0-3l-1 .5v-2.9c.6-.1 1 .3 1 .9V61z"/><path d="M98.5 57.7c-.2.1-.4.3-.6.4 1.2-.5 2.1 0 2.1 1.2V67l-4 2v1l5-2.5V59c0-1.4-1.1-1.9-2.5-1.3z" opacity=".4"/><path fill="#FFF" d="M102 68l-7 3.5v-1l7-3.5z" opacity=".5"/></g><g><path fill="#7FADB9" d="M93 71.5L88 74v-8.5c0-1.4 1.1-3.1 2.5-3.8 1.4-.7 2.5-.1 2.5 1.2v8.6z"/><path fill="#39C" d="M90.5 61.7c-1.4.7-2.5 2.4-2.5 3.8V74l2-1 1-.5 2-1V63c0-1.4-1.1-1.9-2.5-1.3zM89 65c0-.7.4-1.4 1-1.9V66l-1 .5V65zm0 2.5l1-.5v2l-1 .5v-2zm0 5v-2l1-.5v2l-1 .5zm3-1.5l-1 .5v-2l1-.5v2zm0-3l-1 .5v-2l1-.5v2zm0-3l-1 .5v-2.9c.6-.1 1 .3 1 .9V65z"/><path d="M90.5 61.7c-.2.1-.4.3-.6.4 1.2-.5 2.1 0 2.1 1.2V71l-4 2v1l5-2.5V63c0-1.4-1.1-1.9-2.5-1.3z" opacity=".4"/><path fill="#FFF" d="M94 72l-7 3.5v-1l7-3.5z" opacity=".5"/></g><g><path fill="#7FADB9" d="M82 77l-5 2.5V71c0-1.4 1.1-3.1 2.5-3.8 1.4-.7 2.5-.1 2.5 1.2V77z"/><path fill="#39C" d="M79.5 67.2c-1.4.7-2.5 2.4-2.5 3.8v8.5l2-1 1-.5 2-1v-8.5c0-1.4-1.1-1.9-2.5-1.3zM78 70.5c0-.7.4-1.4 1-1.9v2.9l-1 .5v-1.5zm0 2.5l1-.5v2l-1 .5v-2zm0 5v-2l1-.5v2l-1 .5zm3-1.5l-1 .5v-2l1-.5v2zm0-3l-1 .5v-2l1-.5v2zm0-3l-1 .5v-2.9c.6-.1 1 .3 1 .9v1.5z"/><path d="M79.5 67.2c-.2.1-.4.3-.6.4 1.2-.5 2.1 0 2.1 1.2v7.7l-4 2v1l5-2.5v-8.5c0-1.4-1.1-1.9-2.5-1.3z" opacity=".4"/><path fill="#FFF" d="M83 77.5L76 81v-1l7-3.5z" opacity=".5"/></g><g><path fill="#7FADB9" d="M74 81l-5 2.5V75c0-1.4 1.1-3.1 2.5-3.8 1.4-.7 2.5-.1 2.5 1.2V81z"/><path fill="#39C" d="M71.5 71.2c-1.4.7-2.5 2.4-2.5 3.8v8.5l2-1 1-.5 2-1v-8.5c0-1.4-1.1-1.9-2.5-1.3zM70 74.5c0-.7.4-1.4 1-1.9v2.9l-1 .5v-1.5zm0 2.5l1-.5v2l-1 .5v-2zm0 5v-2l1-.5v2l-1 .5zm3-1.5l-1 .5v-2l1-.5v2zm0-3l-1 .5v-2l1-.5v2zm0-3l-1 .5v-2.9c.6-.1 1 .3 1 .9v1.5z"/><path d="M71.5 71.2c-.2.1-.4.3-.6.4 1.2-.5 2.1 0 2.1 1.2v7.7l-4 2v1l5-2.5v-8.5c0-1.4-1.1-1.9-2.5-1.3z" opacity=".4"/><path fill="#FFF" d="M75 81.5L68 85v-1l7-3.5z" opacity=".5"/></g><g><path fill="#7FADB9" d="M120 44l-5 2.5V41c0-1.4 1.1-3.1 2.5-3.8 1.4-.7 2.5-.1 2.5 1.2V44z"/><path fill="#39C" d="M117.5 37.2c-1.4.7-2.5 2.4-2.5 3.8v5.5l2-1 1-.5 2-1v-5.5c0-1.4-1.1-1.9-2.5-1.3zm-1.5 3.3c0-.7.4-1.4 1-1.9v2.9l-1 .5v-1.5zm0 2.5l1-.5v2l-1 .5v-2zm3 .5l-1 .5v-2l1-.5v2zm0-3l-1 .5v-2.9c.6-.1 1 .3 1 .9v1.5z"/><path d="M117.5 37.2c-.2.1-.4.3-.6.4 1.2-.5 2.1 0 2.1 1.2v4.7l-4 2v1l5-2.5v-5.5c0-1.4-1.1-1.9-2.5-1.3z" opacity=".4"/><path fill="#FFF" d="M121 44.5l-7 3.5v-1l7-3.5z" opacity=".5"/></g><g><path fill="#7FADB9" d="M112 48l-5 2.5V45c0-1.4 1.1-3.1 2.5-3.8 1.4-.7 2.5-.1 2.5 1.2V48z"/><path fill="#39C" d="M109.5 41.2c-1.4.7-2.5 2.4-2.5 3.8v5.5l2-1 1-.5 2-1v-5.5c0-1.4-1.1-1.9-2.5-1.3zm-1.5 3.3c0-.7.4-1.4 1-1.9v2.9l-1 .5v-1.5zm0 2.5l1-.5v2l-1 .5v-2zm3 .5l-1 .5v-2l1-.5v2zm0-3l-1 .5v-2.9c.6-.1 1 .3 1 .9v1.5z"/><path d="M109.5 41.2c-.2.1-.4.3-.6.4 1.2-.5 2.1 0 2.1 1.2v4.7l-4 2v1l5-2.5v-5.5c0-1.4-1.1-1.9-2.5-1.3z" opacity=".4"/><path fill="#FFF" d="M113 48.5l-7 3.5v-1l7-3.5z" opacity=".5"/></g><g><path fill="#7FADB9" d="M101 53.5L96 56v-5.5c0-1.4 1.1-3.1 2.5-3.8 1.4-.7 2.5-.1 2.5 1.2v5.6z"/><path fill="#39C" d="M98.5 46.7c-1.4.7-2.5 2.4-2.5 3.8V56l2-1 1-.5 2-1V48c0-1.4-1.1-1.9-2.5-1.3zM97 50c0-.7.4-1.4 1-1.9V51l-1 .5V50zm0 2.5l1-.5v2l-1 .5v-2zm3 .5l-1 .5v-2l1-.5v2zm0-3l-1 .5v-2.9c.6-.1 1 .3 1 .9V50z"/><path d="M98.5 46.7c-.2.1-.4.3-.6.4 1.2-.5 2.1 0 2.1 1.2V53l-4 2v1l5-2.5V48c0-1.4-1.1-1.9-2.5-1.3z" opacity=".4"/><path fill="#FFF" d="M102 54l-7 3.5v-1l7-3.5z" opacity=".5"/></g><g><path fill="#7FADB9" d="M93 57.5L88 60v-5.5c0-1.4 1.1-3.1 2.5-3.8 1.4-.7 2.5-.1 2.5 1.2v5.6z"/><path fill="#39C" d="M90.5 50.7c-1.4.7-2.5 2.4-2.5 3.8V60l2-1 1-.5 2-1V52c0-1.4-1.1-1.9-2.5-1.3zM89 54c0-.7.4-1.4 1-1.9V55l-1 .5V54zm0 2.5l1-.5v2l-1 .5v-2zm3 .5l-1 .5v-2l1-.5v2zm0-3l-1 .5v-2.9c.6-.1 1 .3 1 .9V54z"/><path d="M90.5 50.7c-.2.1-.4.3-.6.4 1.2-.5 2.1 0 2.1 1.2V57l-4 2v1l5-2.5V52c0-1.4-1.1-1.9-2.5-1.3z" opacity=".4"/><path fill="#FFF" d="M94 58l-7 3.5v-1l7-3.5z" opacity=".5"/></g><g><path fill="#7FADB9" d="M83 62.5L78 65v-5.5c0-1.4 1.1-3.1 2.5-3.8 1.4-.7 2.5-.1 2.5 1.2v5.6z"/><path fill="#39C" d="M80.5 55.7c-1.4.7-2.5 2.4-2.5 3.8V65l2-1 1-.5 2-1V57c0-1.4-1.1-1.9-2.5-1.3zM79 59c0-.7.4-1.4 1-1.9V60l-1 .5V59zm0 2.5l1-.5v2l-1 .5v-2zm3 .5l-1 .5v-2l1-.5v2zm0-3l-1 .5v-2.9c.6-.1 1 .3 1 .9V59z"/><path d="M80.5 55.7c-.2.1-.4.3-.6.4 1.2-.5 2.1 0 2.1 1.2V62l-4 2v1l5-2.5V57c0-1.4-1.1-1.9-2.5-1.3z" opacity=".4"/><path fill="#FFF" d="M84 63l-7 3.5v-1l7-3.5z" opacity=".5"/></g><g><path fill="#7FADB9" d="M75 66.5L70 69v-5.5c0-1.4 1.1-3.1 2.5-3.8 1.4-.7 2.5-.1 2.5 1.2v5.6z"/><path fill="#39C" d="M72.5 59.7c-1.4.7-2.5 2.4-2.5 3.8V69l2-1 1-.5 2-1V61c0-1.4-1.1-1.9-2.5-1.3zM71 63c0-.7.4-1.4 1-1.9V64l-1 .5V63zm0 2.5l1-.5v2l-1 .5v-2zm3 .5l-1 .5v-2l1-.5v2zm0-3l-1 .5v-2.9c.6-.1 1 .3 1 .9V63z"/><path d="M72.5 59.7c-.2.1-.4.3-.6.4 1.2-.5 2.1 0 2.1 1.2V66l-4 2v1l5-2.5V61c0-1.4-1.1-1.9-2.5-1.3z" opacity=".4"/><path fill="#FFF" d="M76 67l-7 3.5v-1l7-3.5z" opacity=".5"/></g><g opacity=".39"><path d="M124 83c0 .8-.7 1.8-1.5 2.3s-1.5.1-1.5-.7c0 .8-.7 1.8-1.5 2.3s-1.5-.1-1.5-.9c0 .8-.7 1.8-1.5 2.3s-1.5.1-1.5-.7c0 .8-.7 1.8-1.5 2.3s-1.5-.1-1.5-.9c0 .8-.7 1.8-1.5 2.3s-1.5.1-1.5-.7c0 .8-.7 1.8-1.5 2.3s-1.5-.1-1.5-.9c0 .8-.7 1.8-1.5 2.3s-1.5.1-1.5-.7c0 .8-.7 1.8-1.5 2.3s-1.5-.1-1.5-.9c0 .8-.7 1.8-1.5 2.3s-1.5 0-1.5-.8c0 .8-.7 1.8-1.5 2.3s-1.5 0-1.5-.8c0 .8-.7 1.8-1.5 2.3s-1.5.1-1.5-.7c0 .8-.7 1.8-1.5 2.3s-1.5-.1-1.5-.9c0 .8-.7 1.8-1.5 2.3s-1.5.1-1.5-.7c0 .8-.7 1.8-1.5 2.3s-1.5-.1-1.5-.9c0 .8-.7 1.8-1.5 2.3s-1.5.1-1.5-.7c0 .8-.7 1.8-1.5 2.3s-1.5-.1-1.5-.9c0 .8-.7 1.8-1.5 2.3s-1.5.1-1.5-.7c0 .8-.7 1.8-1.5 2.3s-1.5-.1-1.5-.9v.5c0 .6-.5 1-1.2 1.1-.2 0-.5 0-.8-.1-1.1-.3-2-1.2-2-2v-4.8l3-1.5 3-1.5 3-1.5 3-1.5 3-1.5 3-1.5 3-1.5 3-1.5 3-1.5 3-1.5 3-1.5 3-1.5 3-1.5 3-1.5 3-1.5 3-1.5 3-1.5 3-1.5 3-1.5 2 2.1V30.5L64 61v64l2-1v-1l56-28v.1l1 .4 2-1V83.9c-.6.1-1-.3-1-.9z"/></g><path d="M70 109l-4-4.2v4.8c0 .8.9 1.7 2 2 1.1.3 2-.2 2-1V109z" opacity=".06"/><g><path fill="#F8EBCB" d="M3 93.2l61 30.6v-63L3 30.2z"/><path fill="#39C" d="M4 93.7l59 29.6v-18L4 75.7z"/><path d="M41 112.3l21 10.5v-4l-21-10.5zM6 94.7l20 10v-4l-20-10z" opacity=".15"/><path fill="#F8EBCB" d="M3 94.2l2 1v-21l-2-1zM6 94.8l-1 .4v-21l1 .5z"/><path d="M6 94.8l-1 .4v-21l1 .5z" opacity=".1"/><path fill="#F8EBCB" d="M62 123.8l2 1v-21l-2-1z"/><path d="M3 73.2l61 30.6v-1L3 72.2z" opacity=".15"/><path fill="#FFF" d="M3 72.2l61 30.6v-1L3 71.2z" opacity=".5"/><path d="M3 32.2l61 30.6v-1L3 31.2z" opacity=".15"/><path fill="#FFF" d="M3 31.2l61 30.6v-1L3 30.2zM41 96.3v16l-1-.5v-15l-6-3v15l-1-.5v-15l-6-3.1v15l-1-.5v-16z" opacity=".5"/><path d="M62 102.8l-1-.5v20l1 .5zM62 61.8l-1-.5v39l1 .5zM6 33.7l-1-.5v39l1 .5zM7 81.2l-1-.5v14l1 .5zM12 93.7v-10l1 .5v10l6 3v-10l1 .5v10l5 2.5v1l-18-9v-1z" opacity=".15"/><path d="M48 111.8v-10l1 .5v10l6 3v-10l1 .5v10l5.2 2.5-.2 1-19-9.5v-1zM26 90.7l-1-.5v14l1 .5zM42 98.8l-1-.5v14l1 .5z" opacity=".15"/><path fill="#FFF" d="M27 99.2v6l6 3.1z" opacity=".2"/><path d="M34 97.8l6 3v11l-6-12zM56 108.8l6 3v5.2l-6-6zM49 105.3l7 3.5v5l-7-6.5zM19 90.2l7 3.5v5l-7-6.5z" opacity=".15"/><path fill="#FFF" d="M55 107.3l3 1.5v1c0 .8-.7 1.2-1.5.7s-1.5-1.4-1.5-2.3v-.9z"/><path fill="#CC291F" d="M52 105.3l3 1.5v1.5c0 .8-.7 1.2-1.5.7-.8-.4-1.5-1.4-1.5-2.3v-1.4zM58 108.8l4-1v1.5c0 .8-.9 1.7-2 2s-2-.2-2-1v-1.5z"/><path fill="#FFF" d="M49 104.3l3 1.5v1c0 .8-.7 1.2-1.5.7s-1.5-1.4-1.5-2.3v-.9z"/><path fill="#CC291F" d="M46 102.3l3 1.5v1.5c0 .8-.7 1.2-1.5.7-.8-.4-1.5-1.4-1.5-2.3v-1.4z"/><path fill="#FFF" d="M43 101.3l3 1.5v1c0 .8-.7 1.2-1.5.7-.8-.4-1.5-1.4-1.5-2.3v-.9z"/><path fill="#CC291F" d="M40 99.3l3 1.5v1.5c0 .8-.7 1.2-1.5.7s-1.5-1.4-1.5-2.3v-1.4z"/><path fill="#FFF" d="M37 98.3l3 1.5v1c0 .8-.7 1.2-1.5.7-.8-.4-1.5-1.4-1.5-2.3v-.9z"/><path fill="#CC291F" d="M34 96.3l3 1.5v1.5c0 .8-.7 1.2-1.5.7S34 98.6 34 97.8v-1.5z"/><path fill="#FFF" d="M31 95.2l3 1.5v1c0 .8-.7 1.2-1.5.7-.8-.4-1.5-1.4-1.5-2.3v-.9z"/><path fill="#CC291F" d="M28 93.2l3 1.5v1.5c0 .8-.7 1.2-1.5.7S28 95.6 28 94.7v-1.5z"/><path fill="#FFF" d="M25 92.2l3 1.5v1c0 .8-.7 1.2-1.5.7-.8-.4-1.5-1.4-1.5-2.3v-.9z"/><path fill="#CC291F" d="M22 90.2l3 1.5v1.5c0 .8-.7 1.2-1.5.7S22 92.6 22 91.7v-1.5z"/><path fill="#FFF" d="M19 89.2l3 1.5v1c0 .8-.7 1.2-1.5.7-.8-.4-1.5-1.4-1.5-2.3v-.9z"/><path fill="#CC291F" d="M16 87.2l3 1.5v1.5c0 .8-.7 1.2-1.5.7S16 89.6 16 88.7v-1.5z"/><path fill="#FFF" d="M13 86.2l3 1.5v1c0 .8-.7 1.2-1.5.7-.8-.4-1.5-1.4-1.5-2.3v-.9z"/><path fill="#CC291F" d="M10 84.2l3 1.5v1.5c0 .8-.7 1.2-1.5.7-.8-.4-1.5-1.4-1.5-2.3v-1.4z"/><path fill="#FFF" d="M7 83.2l3 1.5v1c0 .8-.7 1.2-1.5.7S7 85.1 7 84.2v-1z"/><path fill="#CC291F" d="M4 81.2l3 1.5v1.5c0 .8-.7 1.2-1.5.7-.8-.3-1.5-1.3-1.5-2.2v-1.5z"/><path fill="#FFF" d="M1 80.2l3 1.5v1c0 .8-.7 1.2-1.5.7S1 82.1 1 81.2v-1zM55 107.3l3 1.5 4-4.3-3-1.5z"/><path fill="#CC291F" d="M62 108.1l-4 .7 4-4.3zM52 105.8l3 1.5 4-4.3-3-1.5z"/><path fill="#FFF" d="M49 104.3l3 1.5 4-4.3-3-1.5z"/><path fill="#CC291F" d="M46 102.8l3 1.5 4-4.3-3-1.5z"/><path fill="#FFF" d="M43 101.3l3 1.5 4-4.3-3-1.5z"/><path fill="#CC291F" d="M40 99.8l3 1.5 4-4.3-3-1.5z"/><path fill="#FFF" d="M37 98.3l3 1.5 4-4.3-3-1.5z"/><path fill="#CC291F" d="M34 96.8l3 1.5 4-4.3-3-1.5z"/><path fill="#FFF" d="M31 95.2l3 1.6 4-4.3-3-1.5z"/><path fill="#CC291F" d="M28 93.7l3 1.5 4-4.2-3-1.5z"/><path fill="#FFF" d="M25 92.2l3 1.5 4-4.2-3-1.5z"/><path fill="#CC291F" d="M22 90.7l3 1.5 4-4.2-3-1.5z"/><path fill="#FFF" d="M19 89.2l3 1.5 4-4.2-3-1.5z"/><path fill="#CC291F" d="M16 87.7l3 1.5 4-4.2-3-1.5z"/><path fill="#FFF" d="M13 86.2l3 1.5 4-4.2-3-1.5z"/><path fill="#CC291F" d="M10 84.7l3 1.5 4-4.2-3-1.5z"/><path fill="#FFF" d="M7 83.2l3 1.5 4-4.2-3-1.5zM1 80.2l3 1.5 4-4.2L5 76z"/><path fill="#CC291F" d="M4 81.7l3 1.5 4-4.2-3-1.5z"/><path d="M58 108.8v1c0 .8-.7 1.2-1.5.7s-1.5-1.4-1.5-2.3c0 .8-.7 1.2-1.5.7s-1.5-1.4-1.5-2.3c0 .8-.7 1.2-1.5.7S49 105.9 49 105c0 .8-.7 1.2-1.5.7s-1.5-1.4-1.5-2.3c0 .8-.7 1.2-1.5.7s-1.5-1.4-1.5-2.3c0 .8-.7 1.2-1.5.7s-1.5-1.4-1.5-2.3c0 .8-.7 1.2-1.5.7S37 99.5 37 98.6c0 .8-.7 1.2-1.5.7s-1.5-.7-1.5-1.5c0 .8-.7 1.2-1.5.7S31 97.1 31 96.3c0 .8-.7 1.2-1.5.7S28 95.6 28 94.7c0 .8-.7 1.2-1.5.7S25 94.1 25 93.2c0 .8-.7 1.2-1.5.7S22 92.6 22 91.7c0 .8-.7 1.2-1.5.7S19 91.1 19 90.2c0 .8-.7 1.2-1.5.7S16 89.6 16 88.7c0 .8-.7 1.2-1.5.7S13 88.1 13 87.2c0 .8-.7 1.2-1.5.7S10 86.6 10 85.7c0 .8-.7 1.2-1.5.7S7 85.1 7 84.2c0 .8-.7 1.2-1.5.7S4 83.6 4 82.7c0 .8-.7 1.2-1.5.7S1 82.1 1 81.2v-1l57 28.6z" opacity=".06"/><path d="M58 108.8l4-4.2v4.8c0 .8-.9 1.7-2 2-1.1.3-2-.2-2-1v-1.6z" opacity=".39"/><path fill="#7FADB9" d="M59 97.3l-5-2.5v-8.5c0-1.4 1.1-1.9 2.5-1.2s2.5 2.4 2.5 3.8v8.4z"/><path fill="#39C" d="M56.5 85c-1.4-.7-2.5-.1-2.5 1.2v8.5l2 1 1 .5 2 1v-8.5c0-1.3-1.1-3-2.5-3.7zM55 86.8c0-.7.4-1 1-.9v2.9l-1-.5v-1.5zm0 2.5l1 .5v2l-1-.5v-2zm0 5v-2l1 .5v2l-1-.5zm3 1.5l-1-.5v-2l1 .5v2zm0-3l-1-.5v-2l1 .5v2zm0-3l-1-.5v-2.9c.6.5 1 1.3 1 1.9v1.5z"/><path d="M56.5 85c-.2-.1-.4-.2-.6-.2 1.2.7 2.1 2.1 2.1 3.3v7.7l-4-2v1l5 2.5v-8.5c0-1.4-1.1-3.1-2.5-3.8z" opacity=".4"/><path fill="#FFF" d="M60 98.8l-7-3.5v-1l7 3.5z" opacity=".5"/><path fill="#7FADB9" d="M51 93.3l-5-2.5v-8.5c0-1.4 1.1-1.9 2.5-1.2s2.5 2.4 2.5 3.8v8.4z"/><path fill="#39C" d="M48.5 81c-1.4-.7-2.5-.1-2.5 1.2v8.5l2 1 1 .5 2 1v-8.5c0-1.3-1.1-3-2.5-3.7zM47 82.8c0-.7.4-1 1-.9v2.9l-1-.5v-1.5zm0 2.5l1 .5v2l-1-.5v-2zm0 5v-2l1 .5v2l-1-.5zm3 1.5l-1-.5v-2l1 .5v2zm0-3l-1-.5v-2l1 .5v2zm0-3l-1-.5v-2.9c.6.5 1 1.3 1 1.9v1.5z"/><path d="M48.5 81c-.2-.1-.4-.2-.6-.2 1.2.7 2.1 2.1 2.1 3.3v7.7l-4-2v1l5 2.5v-8.5c0-1.4-1.1-3.1-2.5-3.8z" opacity=".4"/><path fill="#FFF" d="M52 94.8l-7-3.5v-1l7 3.5z" opacity=".5"/><path fill="#7FADB9" d="M40 87.8l-5-2.5v-8.5c0-1.4 1.1-1.9 2.5-1.2S40 78 40 79.4v8.4z"/><path fill="#39C" d="M37.5 75.5c-1.4-.7-2.5-.1-2.5 1.2v8.5l2 1 1 .5 2 1v-8.5c0-1.3-1.1-3-2.5-3.7zM36 77.3c0-.7.4-1 1-.9v2.9l-1-.5v-1.5zm0 2.5l1 .5v2l-1-.5v-2zm0 5v-2l1 .5v2l-1-.5zm3 1.5l-1-.5v-2l1 .5v2zm0-3l-1-.5v-2l1 .5v2zm0-3l-1-.5v-2.9c.6.5 1 1.3 1 1.9v1.5z"/><path d="M37.5 75.5c-.2-.1-.4-.2-.6-.2 1.2.7 2.1 2.1 2.1 3.3v7.7l-4-2v1l5 2.5v-8.5c0-1.4-1.1-3.1-2.5-3.8z" opacity=".4"/><path fill="#FFF" d="M41 89.3l-7-3.5v-1l7 3.5z" opacity=".5"/><path fill="#7FADB9" d="M32 83.7l-5-2.5v-8.5c0-1.4 1.1-1.9 2.5-1.2s2.5 2.4 2.5 3.8v8.4z"/><path fill="#39C" d="M29.5 71.5c-1.4-.7-2.5-.1-2.5 1.2v8.5l2 1 1 .5 2 1v-8.5c0-1.3-1.1-3-2.5-3.7zM28 73.2c0-.7.4-1 1-.9v2.9l-1-.5v-1.5zm0 2.5l1 .5v2l-1-.5v-2zm0 5v-2l1 .5v2l-1-.5zm3 1.5l-1-.5v-2l1 .5v2zm0-3l-1-.5v-2l1 .5v2zm0-3l-1-.5v-2.9c.6.5 1 1.3 1 1.9v1.5z"/><path d="M29.5 71.5c-.2-.1-.4-.2-.6-.2 1.2.7 2.1 2.1 2.1 3.3v7.7l-4-2v1l5 2.5v-8.5c0-1.4-1.1-3.1-2.5-3.8z" opacity=".4"/><path fill="#FFF" d="M33 85.3l-7-3.6v-1l7 3.6z" opacity=".5"/><path fill="#7FADB9" d="M21 78.2l-5-2.5v-8.5c0-1.4 1.1-1.9 2.5-1.2s2.5 2.4 2.5 3.8v8.4z"/><path fill="#39C" d="M18.5 66c-1.4-.7-2.5-.1-2.5 1.2v8.5l2 1 1 .5 2 1v-8.5c0-1.3-1.1-3-2.5-3.7zM17 67.7c0-.7.4-1 1-.9v2.9l-1-.5v-1.5zm0 2.5l1 .5v2l-1-.5v-2zm0 5v-2l1 .5v2l-1-.5zm3 1.5l-1-.5v-2l1 .5v2zm0-3l-1-.5v-2l1 .5v2zm0-3l-1-.5v-2.9c.6.5 1 1.3 1 1.9v1.5z"/><path d="M18.5 66c-.2-.1-.4-.2-.6-.2 1.2.7 2.1 2.1 2.1 3.3v7.7l-4-2v1l5 2.5v-8.5c0-1.4-1.1-3.1-2.5-3.8z" opacity=".4"/><path fill="#FFF" d="M22 79.7l-7-3.5v-1l7 3.5z" opacity=".5"/><g><path fill="#7FADB9" d="M13 74.2l-5-2.5v-8.5c0-1.4 1.1-1.9 2.5-1.2s2.5 2.4 2.5 3.8v8.4z"/><path fill="#39C" d="M10.5 62c-1.4-.7-2.5-.1-2.5 1.2v8.5l2 1 1 .5 2 1v-8.5c0-1.3-1.1-3-2.5-3.7zM9 63.7c0-.7.4-1 1-.9v2.9l-1-.5v-1.5zm0 2.5l1 .5v2l-1-.5v-2zm0 5v-2l1 .5v2l-1-.5zm3 1.5l-1-.5v-2l1 .5v2zm0-3l-1-.5v-2l1 .5v2zm0-3l-1-.5v-2.9c.6.5 1 1.3 1 1.9v1.5z"/><path d="M10.5 62c-.2-.1-.4-.2-.6-.2 1.2.7 2.1 2.1 2.1 3.3v7.7l-4-2v1l5 2.5v-8.5c0-1.4-1.1-3.1-2.5-3.8z" opacity=".4"/><path fill="#FFF" d="M14 75.7l-7-3.5v-1l7 3.5z" opacity=".5"/></g><g><path fill="#7FADB9" d="M59 83.3l-5-2.5v-8.5c0-1.4 1.1-1.9 2.5-1.2s2.5 2.4 2.5 3.8v8.4z"/><path fill="#39C" d="M56.5 71c-1.4-.7-2.5-.1-2.5 1.2v8.5l2 1 1 .5 2 1v-8.5c0-1.3-1.1-3-2.5-3.7zM55 72.8c0-.7.4-1 1-.9v2.9l-1-.5v-1.5zm0 2.5l1 .5v2l-1-.5v-2zm0 5v-2l1 .5v2l-1-.5zm3 1.5l-1-.5v-2l1 .5v2zm0-3l-1-.5v-2l1 .5v2zm0-3l-1-.5v-2.9c.6.5 1 1.3 1 1.9v1.5z"/><path d="M56.5 71c-.2-.1-.4-.2-.6-.2 1.2.7 2.1 2.1 2.1 3.3v7.7l-4-2v1l5 2.5v-8.5c0-1.4-1.1-3.1-2.5-3.8z" opacity=".4"/><path fill="#FFF" d="M60 84.8l-7-3.5v-1l7 3.5z" opacity=".5"/></g><g><path fill="#7FADB9" d="M51 79.3l-5-2.5v-8.5c0-1.4 1.1-1.9 2.5-1.2s2.5 2.4 2.5 3.8v8.4z"/><path fill="#39C" d="M48.5 67c-1.4-.7-2.5-.1-2.5 1.2v8.5l2 1 1 .5 2 1v-8.5c0-1.3-1.1-3-2.5-3.7zM47 68.8c0-.7.4-1 1-.9v2.9l-1-.5v-1.5zm0 2.5l1 .5v2l-1-.5v-2zm0 5v-2l1 .5v2l-1-.5zm3 1.5l-1-.5v-2l1 .5v2zm0-3l-1-.5v-2l1 .5v2zm0-3l-1-.5v-2.9c.6.5 1 1.3 1 1.9v1.5z"/><path d="M48.5 67c-.2-.1-.4-.2-.6-.2 1.2.7 2.1 2.1 2.1 3.3v7.7l-4-2v1l5 2.5v-8.5c0-1.4-1.1-3.1-2.5-3.8z" opacity=".4"/><path fill="#FFF" d="M52 80.8l-7-3.5v-1l7 3.5z" opacity=".5"/></g><g><path fill="#7FADB9" d="M40 73.8l-5-2.5v-8.5c0-1.4 1.1-1.9 2.5-1.2S40 64 40 65.4v8.4z"/><path fill="#39C" d="M37.5 61.5c-1.4-.7-2.5-.1-2.5 1.2v8.5l2 1 1 .5 2 1v-8.5c0-1.3-1.1-3-2.5-3.7zM36 63.3c0-.7.4-1 1-.9v2.9l-1-.5v-1.5zm0 2.5l1 .5v2l-1-.5v-2zm0 5v-2l1 .5v2l-1-.5zm3 1.5l-1-.5v-2l1 .5v2zm0-3l-1-.5v-2l1 .5v2zm0-3l-1-.5v-2.9c.6.5 1 1.3 1 1.9v1.5z"/><path d="M37.5 61.5c-.2-.1-.4-.2-.6-.2 1.2.7 2.1 2.1 2.1 3.3v7.7l-4-2v1l5 2.5v-8.5c0-1.4-1.1-3.1-2.5-3.8z" opacity=".4"/><path fill="#FFF" d="M41 75.3l-7-3.5v-1l7 3.5z" opacity=".5"/></g><g><path fill="#7FADB9" d="M32 69.7l-5-2.5v-8.5c0-1.4 1.1-1.9 2.5-1.2s2.5 2.4 2.5 3.8v8.4z"/><path fill="#39C" d="M29.5 57.5c-1.4-.7-2.5-.1-2.5 1.2v8.5l2 1 1 .5 2 1v-8.5c0-1.3-1.1-3-2.5-3.7zM28 59.2c0-.7.4-1 1-.9v2.9l-1-.5v-1.5zm0 2.5l1 .5v2l-1-.5v-2zm0 5v-2l1 .5v2l-1-.5zm3 1.5l-1-.5v-2l1 .5v2zm0-3l-1-.5v-2l1 .5v2zm0-3l-1-.5v-2.9c.6.5 1 1.3 1 1.9v1.5z"/><path d="M29.5 57.5c-.2-.1-.4-.2-.6-.2 1.2.7 2.1 2.1 2.1 3.3v7.7l-4-2v1l5 2.5v-8.5c0-1.4-1.1-3.1-2.5-3.8z" opacity=".4"/><path fill="#FFF" d="M33 71.3l-7-3.6v-1l7 3.6z" opacity=".5"/></g><g><path fill="#7FADB9" d="M21 64.2l-5-2.5v-8.5c0-1.4 1.1-1.9 2.5-1.2s2.5 2.4 2.5 3.8v8.4z"/><path fill="#39C" d="M18.5 52c-1.4-.7-2.5-.1-2.5 1.2v8.5l2 1 1 .5 2 1v-8.5c0-1.3-1.1-3-2.5-3.7zM17 53.7c0-.7.4-1 1-.9v2.9l-1-.5v-1.5zm0 2.5l1 .5v2l-1-.5v-2zm0 5v-2l1 .5v2l-1-.5zm3 1.5l-1-.5v-2l1 .5v2zm0-3l-1-.5v-2l1 .5v2zm0-3l-1-.5v-2.9c.6.5 1 1.3 1 1.9v1.5z"/><path d="M18.5 52c-.2-.1-.4-.2-.6-.2 1.2.7 2.1 2.1 2.1 3.3v7.7l-4-2v1l5 2.5v-8.5c0-1.4-1.1-3.1-2.5-3.8z" opacity=".4"/><path fill="#FFF" d="M22 65.7l-7-3.5v-1l7 3.5z" opacity=".5"/></g><g><path fill="#7FADB9" d="M13 60.2l-5-2.5v-8.5c0-1.4 1.1-1.9 2.5-1.2s2.5 2.4 2.5 3.8v8.4z"/><path fill="#39C" d="M10.5 48c-1.4-.7-2.5-.1-2.5 1.2v8.5l2 1 1 .5 2 1v-8.5c0-1.3-1.1-3-2.5-3.7zM9 49.7c0-.7.4-1 1-.9v2.9l-1-.5v-1.5zm0 2.5l1 .5v2l-1-.5v-2zm0 5v-2l1 .5v2l-1-.5zm3 1.5l-1-.5v-2l1 .5v2zm0-3l-1-.5v-2l1 .5v2zm0-3l-1-.5v-2.9c.6.5 1 1.3 1 1.9v1.5z"/><path d="M10.5 48c-.2-.1-.4-.2-.6-.2 1.2.7 2.1 2.1 2.1 3.3v7.7l-4-2v1l5 2.5v-8.5c0-1.4-1.1-3.1-2.5-3.8z" opacity=".4"/><path fill="#FFF" d="M14 61.7l-7-3.5v-1l7 3.5z" opacity=".5"/></g><g><path fill="#7FADB9" d="M59 69.3l-5-2.5v-5.5c0-1.4 1.1-1.9 2.5-1.2s2.5 2.4 2.5 3.8v5.4z"/><path fill="#39C" d="M56.5 60c-1.4-.7-2.5-.1-2.5 1.2v5.5l2 1 1 .5 2 1v-5.5c0-1.3-1.1-3-2.5-3.7zM55 61.8c0-.7.4-1 1-.9v2.9l-1-.5v-1.5zm0 2.5l1 .5v2l-1-.5v-2zm3 3.5l-1-.5v-2l1 .5v2zm0-3l-1-.5v-2.9c.6.5 1 1.3 1 1.9v1.5z"/><path d="M56.5 60c-.2-.1-.4-.2-.6-.2 1.2.7 2.1 2.1 2.1 3.3v4.7l-4-2v1l5 2.5v-5.5c0-1.4-1.1-3.1-2.5-3.8z" opacity=".4"/><path fill="#FFF" d="M60 70.8l-7-3.5v-1l7 3.5z" opacity=".5"/></g><g><path fill="#7FADB9" d="M51 65.3l-5-2.5v-5.5c0-1.4 1.1-1.9 2.5-1.2s2.5 2.4 2.5 3.8v5.4z"/><path fill="#39C" d="M48.5 56c-1.4-.7-2.5-.1-2.5 1.2v5.5l2 1 1 .5 2 1v-5.5c0-1.3-1.1-3-2.5-3.7zM47 57.8c0-.7.4-1 1-.9v2.9l-1-.5v-1.5zm0 2.5l1 .5v2l-1-.5v-2zm3 3.5l-1-.5v-2l1 .5v2zm0-3l-1-.5v-2.9c.6.5 1 1.3 1 1.9v1.5z"/><path d="M48.5 56c-.2-.1-.4-.2-.6-.2 1.2.7 2.1 2.1 2.1 3.3v4.7l-4-2v1l5 2.5v-5.5c0-1.4-1.1-3.1-2.5-3.8z" opacity=".4"/><path fill="#FFF" d="M52 66.8l-7-3.5v-1l7 3.5z" opacity=".5"/></g><g><path fill="#7FADB9" d="M40 59.8l-5-2.5v-5.5c0-1.4 1.1-1.9 2.5-1.2S40 53 40 54.4v5.4z"/><path fill="#39C" d="M37.5 50.5c-1.4-.7-2.5-.1-2.5 1.2v5.5l2 1 1 .5 2 1v-5.5c0-1.3-1.1-3-2.5-3.7zM36 52.3c0-.7.4-1 1-.9v2.9l-1-.5v-1.5zm0 2.5l1 .5v2l-1-.5v-2zm3 3.5l-1-.5v-2l1 .5v2zm0-3l-1-.5v-2.9c.6.5 1 1.3 1 1.9v1.5z"/><path d="M37.5 50.5c-.2-.1-.4-.2-.6-.2 1.2.7 2.1 2.1 2.1 3.3v4.7l-4-2v1l5 2.5v-5.5c0-1.4-1.1-3.1-2.5-3.8z" opacity=".4"/><path fill="#FFF" d="M41 61.3l-7-3.5v-1l7 3.5z" opacity=".5"/></g><g><path fill="#7FADB9" d="M32 55.7l-5-2.5v-5.5c0-1.4 1.1-1.9 2.5-1.2s2.5 2.4 2.5 3.8v5.4z"/><path fill="#39C" d="M29.5 46.5c-1.4-.7-2.5-.1-2.5 1.2v5.5l2 1 1 .5 2 1v-5.5c0-1.3-1.1-3-2.5-3.7zM28 48.2c0-.7.4-1 1-.9v2.9l-1-.5v-1.5zm0 2.5l1 .5v2l-1-.5v-2zm3 3.5l-1-.5v-2l1 .5v2zm0-3l-1-.5v-2.9c.6.5 1 1.3 1 1.9v1.5z"/><path d="M29.5 46.5c-.2-.1-.4-.2-.6-.2 1.2.7 2.1 2.1 2.1 3.3v4.7l-4-2v1l5 2.5v-5.5c0-1.4-1.1-3.1-2.5-3.8z" opacity=".4"/><path fill="#FFF" d="M33 57.3l-7-3.6v-1l7 3.6z" opacity=".5"/></g><g><path fill="#7FADB9" d="M22 50.7l-5-2.5v-5.5c0-1.4 1.1-1.9 2.5-1.2s2.5 2.4 2.5 3.8v5.4z"/><path fill="#39C" d="M19.5 41.5c-1.4-.7-2.5-.1-2.5 1.2v5.5l2 1 1 .5 2 1v-5.5c0-1.3-1.1-3-2.5-3.7zM18 43.2c0-.7.4-1 1-.9v2.9l-1-.5v-1.5zm0 2.5l1 .5v2l-1-.5v-2zm3 3.5l-1-.5v-2l1 .5v2zm0-3l-1-.5v-2.9c.6.5 1 1.3 1 1.9v1.5z"/><path d="M19.5 41.5c-.2-.1-.4-.2-.6-.2 1.2.7 2.1 2.1 2.1 3.3v4.7l-4-2v1l5 2.5v-5.5c0-1.4-1.1-3.1-2.5-3.8z" opacity=".4"/><path fill="#FFF" d="M23 52.2l-7-3.5v-1l7 3.5z" opacity=".5"/></g><g><path fill="#7FADB9" d="M14 46.7l-5-2.5v-5.5c0-1.4 1.1-1.9 2.5-1.2s2.5 2.4 2.5 3.8v5.4z"/><path fill="#39C" d="M11.5 37.5c-1.4-.7-2.5-.1-2.5 1.2v5.5l2 1 1 .5 2 1v-5.5c0-1.3-1.1-3-2.5-3.7zM10 39.2c0-.7.4-1 1-.9v2.9l-1-.5v-1.5zm0 2.5l1 .5v2l-1-.5v-2zm3 3.5l-1-.5v-2l1 .5v2zm0-3l-1-.5v-2.9c.6.5 1 1.3 1 1.9v1.5z"/><path d="M11.5 37.5c-.2-.1-.4-.2-.6-.2 1.2.7 2.1 2.1 2.1 3.3v4.7l-4-2v1l5 2.5v-5.5c0-1.4-1.1-3.1-2.5-3.8z" opacity=".4"/><path fill="#FFF" d="M15 48.2l-7-3.5v-1l7 3.5z" opacity=".5"/></g><g opacity=".4"><path d="M58 108.8z"/><path d="M4 82.7c0 .8.7 1.8 1.5 2.3s1.5.1 1.5-.8c0 .8.7 1.8 1.5 2.3s1.5.1 1.5-.7c0 .8.7 1.8 1.5 2.3s1.5.1 1.5-.7c0 .8.7 1.8 1.5 2.3s1.5.1 1.5-.7c0 .8.7 1.8 1.5 2.3s1.5.1 1.5-.7c0 .8.7 1.8 1.5 2.3s1.5.1 1.5-.7c0 .8.7 1.8 1.5 2.3s1.5.1 1.5-.7c0 .8.7 1.8 1.5 2.3s1.5.1 1.5-.7c0 .8.7 1.8 1.5 2.3s1.5.1 1.5-.7c0 .8.7 1.8 1.5 2.3s1.5.1 1.5-.7c0 .8.7 1.8 1.5 2.3s1.5.1 1.5-.7c0 .8.7 1.8 1.5 2.3s1.5.1 1.5-.7c0 .8.7 1.8 1.5 2.3s1.5.1 1.5-.7c0 .8.7 1.8 1.5 2.3s1.5.1 1.5-.7c0 .8.7 1.8 1.5 2.3s1.5.1 1.5-.7c0 .8.7 1.8 1.5 2.3s1.5.1 1.5-.7c0 .8.7 1.8 1.5 2.3s1.5.1 1.5-.7c0 .8.7 1.8 1.5 2.3s1.5.1 1.5-.7v.5c0 .6.5 1 1.2 1.1.2 0 .5 0 .8-.1 1.1-.3 2-1.2 2-2v-4.8l-3-1.5-3-1.5-3-1.5-3-1.5-3-3.1-3-1.5-3-1.5-3-1.5-3-1.5-3-1.5-3-1.5-3-1.5-3-1.5-3-1.5-3-1.5-3-1.5-3-1.5-3-1.5L5 76l-2 2.1V30.2l61 30.5v64l-2-1v-1l-56-28v.1l-1 .4-2-1V83.6c.6.1 1-.2 1-.9z" opacity=".06"/></g></g><path fill="#F8EBCB" d="M64 61l61-30.5L64 0 3 30.5z"/><path fill="#202426" d="M9 30.5L64 3l55 27.5L64 58z" opacity=".2"/><path d="M64 5V3L9 30.5l2 1z" opacity=".39"/><path d="M64 5l53 26.5 2-1L64 3z" opacity=".06"/><g><path fill="#F8EBCB" d="M66 10L42 22v2l12 6 24-12v-2z"/><path d="M78 18L54 30v-2l24-12z" opacity=".39"/><path d="M42 24l12 6v-2l-12-6z" opacity=".06"/><path fill="#656565" d="M65 14c-2.8 0-5 1.1-5 2.5s2.2 2.5 5 2.5 5-1.1 5-2.5-2.2-2.5-5-2.5zm0 4c-1.7 0-3-.7-3-1.5s1.3-1.5 3-1.5 3 .7 3 1.5-1.3 1.5-3 1.5zM55 19c-2.8 0-5 1.1-5 2.5s2.2 2.5 5 2.5 5-1.1 5-2.5-2.2-2.5-5-2.5zm0 4c-1.7 0-3-.7-3-1.5s1.3-1.5 3-1.5 3 .7 3 1.5-1.3 1.5-3 1.5z"/></g><g><path fill="#F8EBCB" d="M84 19L60 31v2l12 6 24-12v-2z"/><path d="M96 27L72 39v-2l24-12z" opacity=".39"/><path d="M60 33l12 6v-2l-12-6z" opacity=".06"/><path fill="#656565" d="M83 23c-2.8 0-5 1.1-5 2.5s2.2 2.5 5 2.5 5-1.1 5-2.5-2.2-2.5-5-2.5zm0 4c-1.7 0-3-.7-3-1.5s1.3-1.5 3-1.5 3 .7 3 1.5-1.3 1.5-3 1.5zM73 28c-2.8 0-5 1.1-5 2.5s2.2 2.5 5 2.5 5-1.1 5-2.5-2.2-2.5-5-2.5zm0 4c-1.7 0-3-.7-3-1.5s1.3-1.5 3-1.5 3 .7 3 1.5-1.3 1.5-3 1.5z"/></g></svg>